# xmcd
#
# Track frame offsets: 
#        150
#        16599
#        28915
#        39222
#        48742
#        64713
#        76079
#        87073
#        97154
#        108102
#
# Disc length: 1580 seconds
#
# Revision: 0
# Processed by: cddbd v1.5.2PL0 Copyright (c) Steve Scherf et al.
# Submitted via: ExactAudioCopy v1.0b1
#
DISCID=6c062a0a
DTITLE=The Smokey Mountain String Machine - Bluegrass Favorites
DYEAR=2011
DGENRE=Bluegrass
TTITLE0=Man of Constant Sorrow
TTITLE1=Will The Circle Be Unbroken
TTITLE2=Cotton Eyed Joe
TTITLE3=Cripple Creek
TTITLE4=Wayfaring Stranger
TTITLE5=Wildwood Flower
TTITLE6=Orange Blossom Special
TTITLE7=Back Up And Push
TTITLE8=Turkey In The Straw
TTITLE9=Salty Dog
EXTD=
EXTT0=
EXTT1=
EXTT2=
EXTT3=
EXTT4=
EXTT5=
EXTT6=
EXTT7=
EXTT8=
EXTT9=
PLAYORDER=
